<svg width="21" height="21" viewBox="0 0 21 21" fill="none" xmlns="http://www.w3.org/2000/svg">
<path d="M0.121338 10.1898C0.122509 15.1429 3.72422 19.3602 8.61606 20.1364V13.0996H6.0617V10.1898H8.61908V7.97479C8.50476 6.92519 8.86326 5.87914 9.59737 5.12032C10.3315 4.3615 11.3651 3.96858 12.4179 4.0481C13.1736 4.06031 13.9273 4.12761 14.6732 4.24947V6.72529H13.4006C12.9624 6.66791 12.522 6.81261 12.2032 7.11863C11.8845 7.42466 11.7219 7.85888 11.7614 8.29899V10.1898H14.5514L14.1054 13.1006H11.7614V20.1364C17.0519 19.3003 20.7617 14.4687 20.2033 9.14179C19.6449 3.81489 15.0138 -0.142444 9.66501 0.136702C4.31621 0.415848 0.122188 4.83375 0.121338 10.1898Z" fill="#CC2439"/>
</svg>
