<svg width="19" height="19" viewBox="0 0 19 19" fill="none" xmlns="http://www.w3.org/2000/svg">
<path d="M9.50176 18.2907C7.02493 18.2907 6.73295 18.2777 5.76638 18.2354C5.01263 18.2106 4.26863 18.0574 3.56643 17.7823C2.35148 17.3095 1.39079 16.3484 0.918435 15.1333C0.653944 14.4285 0.511287 13.6839 0.496569 12.9313C0.440186 11.9668 0.440186 11.6506 0.440186 9.19292C0.440186 6.70904 0.453274 6.41907 0.496569 5.45754C0.511609 4.70595 0.654261 3.96239 0.918435 3.2586C1.39027 2.04186 2.35253 1.07997 3.56945 0.608591C4.27287 0.342988 5.01663 0.199958 5.76839 0.185717C6.72993 0.131348 7.04607 0.131348 9.50176 0.131348C11.9987 0.131348 12.2857 0.144437 13.2371 0.185717C13.9909 0.200081 14.7366 0.343096 15.4421 0.608591C16.6587 1.0805 17.6208 2.04221 18.0931 3.2586C18.3621 3.97264 18.5055 4.72783 18.517 5.49077C18.5734 6.45532 18.5734 6.77046 18.5734 9.22716C18.5734 11.6839 18.5593 12.006 18.517 12.9595C18.502 13.7128 18.359 14.4581 18.0941 15.1635C17.6206 16.3795 16.6585 17.3409 15.4421 17.8135C14.7376 18.0775 13.9934 18.2201 13.2412 18.2354C12.2796 18.2907 11.9645 18.2907 9.50176 18.2907ZM9.46753 1.72518C7.00479 1.72518 6.74906 1.73726 5.78752 1.78055C5.21361 1.78816 4.64524 1.89407 4.1071 2.09368C3.31246 2.39776 2.68366 3.024 2.37634 3.8174C2.17519 4.36139 2.06926 4.93598 2.06321 5.51594C2.00985 6.49157 2.00985 6.7473 2.00985 9.19292C2.00985 11.6093 2.01891 11.9023 2.06321 12.8719C2.07223 13.446 2.17809 14.0145 2.37634 14.5533C2.68411 15.3462 3.3128 15.972 4.1071 16.2761C4.64487 16.477 5.21347 16.5829 5.78752 16.5892C6.76215 16.6456 7.01889 16.6456 9.46753 16.6456C11.9373 16.6456 12.193 16.6335 13.1465 16.5892C13.7208 16.5822 14.2896 16.4763 14.828 16.2761C15.6178 15.9694 16.2425 15.345 16.5497 14.5554C16.7504 14.0109 16.8563 13.4361 16.8628 12.8558H16.8739C16.9172 11.8933 16.9172 11.6365 16.9172 9.17681C16.9172 6.7171 16.9061 6.45834 16.8628 5.49681C16.8538 4.92336 16.7479 4.35556 16.5497 3.8174C16.2432 3.02659 15.6184 2.40106 14.828 2.09368C14.2897 1.89306 13.7209 1.78712 13.1465 1.78055C12.1729 1.72518 11.9182 1.72518 9.46753 1.72518ZM9.50176 13.8435C7.61896 13.8447 5.92085 12.7116 5.19939 10.9725C4.47793 9.23338 4.87523 7.23092 6.206 5.899C7.53677 4.56708 9.53888 4.16805 11.2786 4.888C13.0183 5.60796 14.153 7.30508 14.1534 9.18789C14.1506 11.7564 12.0703 13.8385 9.50176 13.8435ZM9.50176 6.16535C7.83357 6.16535 6.48124 7.51769 6.48124 9.18588C6.48124 10.8541 7.83357 12.2064 9.50176 12.2064C11.17 12.2064 12.5223 10.8541 12.5223 9.18588C12.5184 7.51929 11.1683 6.16923 9.50176 6.16535ZM14.3346 5.44748C13.736 5.44525 13.2521 4.95874 13.2533 4.36009C13.2544 3.76144 13.74 3.27673 14.3386 3.27673C14.9373 3.27673 15.4229 3.76144 15.424 4.36008C15.4243 4.64891 15.3095 4.92595 15.1051 5.12999C14.9007 5.33403 14.6234 5.44828 14.3346 5.44748Z" fill="#CC2439"/>
</svg>
