<svg width="22" height="18" viewBox="0 0 22 18" fill="none" xmlns="http://www.w3.org/2000/svg">
<path d="M18.862 2.83938C19.7646 2.2998 20.4399 1.45017 20.7619 0.449133C19.9138 0.952356 18.9859 1.30684 18.0183 1.49726C16.6767 0.0781398 14.5512 -0.267208 12.8294 0.654183C11.1076 1.57557 10.2157 3.5356 10.6522 5.43904C7.17821 5.26463 3.94157 3.62362 1.7477 0.924363C0.60276 2.8992 1.18785 5.42372 3.08479 6.69357C2.39883 6.67151 1.72809 6.48579 1.12849 6.15189C1.12849 6.17001 1.12849 6.18813 1.12849 6.20625C1.12889 8.26339 2.57872 10.0354 4.59505 10.443C3.95879 10.6161 3.2914 10.6416 2.64379 10.5176C3.21084 12.2768 4.83221 13.482 6.68022 13.5179C5.14965 14.7192 3.25945 15.3707 1.31375 15.3675C0.968878 15.368 0.624276 15.3482 0.281738 15.3081C2.25755 16.5778 4.55716 17.2517 6.90575 17.2493C10.1732 17.2717 13.3133 15.9836 15.6237 13.673C17.9341 11.3624 19.222 8.2222 19.1993 4.95475C19.1993 4.76748 19.1949 4.58121 19.1862 4.39595C20.0324 3.7844 20.7627 3.0268 21.3429 2.15875C20.5545 2.50819 19.7183 2.73761 18.862 2.83938Z" fill="#CC2439"/>
</svg>
