<svg width="21" height="21" viewBox="0 0 21 21" fill="none" xmlns="http://www.w3.org/2000/svg">
<path d="M0.12146 10.1898C0.122631 15.1429 3.72434 19.3602 8.61618 20.1364V13.0996H6.06183V10.1898H8.61921V7.97479C8.50488 6.92519 8.86339 5.87914 9.59749 5.12032C10.3316 4.3615 11.3652 3.96858 12.418 4.0481C13.1737 4.06031 13.9275 4.12761 14.6733 4.24947V6.72529H13.4007C12.9626 6.66791 12.5221 6.81261 12.2033 7.11863C11.8846 7.42466 11.7221 7.85888 11.7616 8.29899V10.1898H14.5515L14.1055 13.1006H11.7616V20.1364C17.052 19.3003 20.7618 14.4687 20.2034 9.14179C19.6451 3.81489 15.0139 -0.142444 9.66514 0.136702C4.31633 0.415848 0.12231 4.83375 0.12146 10.1898Z" fill="#4F4F4F"/>
</svg>
