<svg width="19" height="19" viewBox="0 0 19 19" fill="none" xmlns="http://www.w3.org/2000/svg">
<path d="M9.50188 18.2907C7.02505 18.2907 6.73307 18.2777 5.7665 18.2354C5.01275 18.2106 4.26876 18.0574 3.56655 17.7823C2.35161 17.3095 1.39091 16.3484 0.918557 15.1333C0.654066 14.4285 0.511409 13.6839 0.496691 12.9313C0.440308 11.9668 0.440308 11.6506 0.440308 9.19292C0.440308 6.70904 0.453397 6.41907 0.496691 5.45754C0.511731 4.70595 0.654384 3.96239 0.918557 3.2586C1.3904 2.04186 2.35265 1.07997 3.56957 0.608591C4.273 0.342988 5.01675 0.199958 5.76851 0.185717C6.73005 0.131348 7.0462 0.131348 9.50188 0.131348C11.9989 0.131348 12.2858 0.144437 13.2373 0.185717C13.991 0.200081 14.7367 0.343096 15.4423 0.608591C16.6588 1.0805 17.6209 2.04221 18.0933 3.2586C18.3622 3.97264 18.5056 4.72783 18.5171 5.49077C18.5735 6.45532 18.5735 6.77046 18.5735 9.22716C18.5735 11.6839 18.5594 12.006 18.5171 12.9595C18.5022 13.7128 18.3592 14.4581 18.0943 15.1635C17.6207 16.3795 16.6586 17.3409 15.4423 17.8135C14.7377 18.0775 13.9935 18.2201 13.2413 18.2354C12.2798 18.2907 11.9646 18.2907 9.50188 18.2907ZM9.46765 1.72518C7.00492 1.72518 6.74918 1.73726 5.78764 1.78055C5.21373 1.78816 4.64536 1.89407 4.10723 2.09368C3.31258 2.39776 2.68378 3.024 2.37646 3.8174C2.17531 4.36139 2.06939 4.93598 2.06334 5.51594C2.00997 6.49157 2.00997 6.7473 2.00997 9.19292C2.00997 11.6093 2.01904 11.9023 2.06334 12.8719C2.07235 13.446 2.17821 14.0145 2.37646 14.5533C2.68423 15.3462 3.31292 15.972 4.10723 16.2761C4.64499 16.477 5.21359 16.5829 5.78764 16.5892C6.76227 16.6456 7.01901 16.6456 9.46765 16.6456C11.9374 16.6456 12.1932 16.6335 13.1467 16.5892C13.721 16.5822 14.2898 16.4763 14.8281 16.2761C15.6179 15.9694 16.2426 15.345 16.5498 14.5554C16.7505 14.0109 16.8564 13.4361 16.8629 12.8558H16.874C16.9173 11.8933 16.9173 11.6365 16.9173 9.17681C16.9173 6.7171 16.9062 6.45834 16.8629 5.49681C16.8539 4.92336 16.748 4.35556 16.5498 3.8174C16.2433 3.02659 15.6185 2.40106 14.8281 2.09368C14.2899 1.89306 13.721 1.78712 13.1467 1.78055C12.173 1.72518 11.9183 1.72518 9.46765 1.72518ZM9.50188 13.8435C7.61908 13.8447 5.92097 12.7116 5.19951 10.9725C4.47805 9.23338 4.87535 7.23092 6.20612 5.899C7.53689 4.56708 9.539 4.16805 11.2787 4.888C13.0184 5.60796 14.1531 7.30508 14.1535 9.18789C14.1507 11.7564 12.0704 13.8385 9.50188 13.8435ZM9.50188 6.16535C7.83369 6.16535 6.48136 7.51769 6.48136 9.18588C6.48136 10.8541 7.83369 12.2064 9.50188 12.2064C11.1701 12.2064 12.5224 10.8541 12.5224 9.18588C12.5185 7.51929 11.1685 6.16923 9.50188 6.16535ZM14.3347 5.44748C13.7361 5.44525 13.2523 4.95874 13.2534 4.36009C13.2545 3.76144 13.7401 3.27673 14.3387 3.27673C14.9374 3.27673 15.423 3.76144 15.4241 4.36008C15.4244 4.64891 15.3096 4.92595 15.1052 5.12999C14.9008 5.33403 14.6235 5.44828 14.3347 5.44748Z" fill="#4F4F4F"/>
</svg>
